<svg width="900" height="200" viewBox="0 0 900 200" xmlns="http://www.w3.org/2000/svg" role="img">
  <title>Ismael Bovingdon Castillejo — Junior Data Engineer</title>
  <desc>Banner header with dark navy to orange gradient</desc>

  <defs>
    <linearGradient id="bgGrad" x1="0" y1="0" x2="0" y2="1">
      <stop offset="0%" stop-color="#0A1628"/>
      <stop offset="60%" stop-color="#112240"/>
      <stop offset="100%" stop-color="#7A3200"/>
    </linearGradient>
    <linearGradient id="waveGrad" x1="0" y1="0" x2="1" y2="0">
      <stop offset="0%" stop-color="#0A1628"/>
      <stop offset="100%" stop-color="#8B3A00"/>
    </linearGradient>
    <clipPath id="clip">
      <rect width="900" height="200" rx="0"/>
    </clipPath>
  </defs>

  <rect width="900" height="200" fill="url(#bgGrad)"/>

  <path d="M0 155 C150 130, 300 170, 450 148 C600 126, 750 160, 900 140 L900 200 L0 200 Z" fill="#0A1628" opacity="0.5"/>
  <path d="M0 165 C180 145, 350 178, 500 158 C650 138, 780 168, 900 152 L900 200 L0 200 Z" fill="#061020" opacity="0.7"/>

  <circle cx="760" cy="55" r="80" fill="#C45A00" opacity="0.12"/>
  <circle cx="820" cy="30" r="45" fill="#FF8C42" opacity="0.08"/>
  <circle cx="140" cy="160" r="60" fill="#1A3A5C" opacity="0.25"/>

  <text x="60" y="72"
    font-family="'Segoe UI', 'Helvetica Neue', Arial, sans-serif"
    font-size="13"
    font-weight="600"
    letter-spacing="3"
    fill="#FF8C42"
    text-anchor="start">DATA ENGINEERING  ·  CLOUD  ·  BUSINESS INTELLIGENCE</text>

  <text x="58" y="122"
    font-family="'Segoe UI', 'Helvetica Neue', Arial, sans-serif"
    font-size="38"
    font-weight="700"
    fill="#E8F4FD"
    text-anchor="start">Ismael Bovingdon Castillejo</text>

  <text x="62" y="152"
    font-family="'Segoe UI', 'Helvetica Neue', Arial, sans-serif"
    font-size="16"
    font-weight="400"
    fill="#8DB4D4"
    text-anchor="start">Junior Data Engineer  |  Cloud  |  Business Intelligence</text>

  <line x1="58" y1="88" x2="340" y2="88" stroke="#FF8C42" stroke-width="1.5" opacity="0.6"/>
</svg>
